<?xml version="1.0" standalone="no"?>
<!DOCTYPE svg PUBLIC "-//W3C//DTD SVG 20010904//EN"
 "http://www.w3.org/TR/2001/REC-SVG-20010904/DTD/svg10.dtd">
<svg version="1.0" xmlns="http://www.w3.org/2000/svg"
 width="170.000000pt" height="296.000000pt" viewBox="0 0 170.000000 296.000000"
 preserveAspectRatio="xMidYMid meet">

<g transform="translate(0.000000,296.000000) scale(0.100000,-0.100000)"
fill="#000000" stroke="none">
<path d="M755 2954 c-298 -44 -550 -223 -671 -479 -60 -127 -77 -205 -77 -350
1 -229 49 -370 233 -679 157 -264 231 -408 300 -577 85 -210 163 -447 220
-669 23 -91 46 -171 52 -177 14 -17 63 -16 77 1 7 8 32 91 56 185 58 224 121
416 207 631 74 184 125 283 307 594 130 224 184 342 213 468 27 120 29 302 4
403 -22 92 -103 256 -160 325 -121 146 -307 260 -497 305 -67 16 -213 26 -264
19z"/>
</g>
</svg>
