<?xml version="1.0" standalone="no"?>
<!DOCTYPE svg PUBLIC "-//W3C//DTD SVG 20010904//EN"
 "http://www.w3.org/TR/2001/REC-SVG-20010904/DTD/svg10.dtd">
<svg version="1.0" xmlns="http://www.w3.org/2000/svg"
 width="626.000000pt" height="470.000000pt" viewBox="0 0 626.000000 470.000000"
 preserveAspectRatio="xMidYMid meet">

<g transform="translate(0.000000,470.000000) scale(0.100000,-0.100000)"
fill="#000000" stroke="none">
<path d="M1118 4236 c-62 -18 -107 -47 -155 -99 -58 -63 -78 -123 -78 -237 0
-82 4 -103 26 -151 33 -69 88 -124 159 -158 46 -22 69 -26 145 -26 76 0 99 4
146 27 106 49 171 139 188 259 21 159 -52 305 -186 366 -66 30 -176 39 -245
19z"/>
<path d="M2285 4196 c-37 -16 -70 -52 -84 -89 -7 -19 -11 -205 -11 -550 l0
-521 -227 226 c-215 214 -231 227 -284 242 -50 15 -115 16 -520 14 -454 -3
-465 -3 -504 -25 -52 -28 -100 -78 -119 -125 -24 -56 -24 -1044 -1 -1089 34
-64 128 -89 192 -49 58 35 58 34 63 430 5 357 5 365 25 365 20 0 20 -8 25
-1050 l5 -1050 24 -38 c68 -110 249 -100 305 16 14 31 16 101 16 660 0 543 2
626 15 637 12 10 18 10 30 0 13 -11 15 -94 15 -633 0 -610 0 -621 21 -664 60
-124 249 -124 317 0 16 30 17 103 17 1124 0 601 2 1093 5 1093 3 0 107 -102
232 -227 l228 -228 130 130 130 130 0 572 0 573 1570 0 1570 0 0 -1065 0
-1065 -1570 0 -1570 0 0 360 c0 198 -4 360 -8 360 -5 0 -36 -29 -70 -64 l-62
-64 0 -301 c0 -280 1 -305 20 -340 11 -22 35 -48 53 -60 l34 -21 1598 0 c1778
0 1641 -6 1687 69 l23 36 0 1097 c0 1092 0 1097 -21 1124 -11 15 -33 37 -48
48 -27 21 -29 21 -1624 23 -1316 2 -1602 0 -1627 -11z"/>
<path d="M2600 3123 c-465 -454 -550 -541 -550 -565 0 -30 29 -53 58 -44 15 5
798 801 1020 1037 72 77 84 109 41 109 -12 0 -229 -205 -569 -537z"/>
<path d="M2631 1675 c-70 -20 -108 -44 -163 -103 -61 -65 -83 -126 -83 -232 0
-71 4 -94 26 -141 34 -72 96 -134 168 -168 48 -22 69 -26 146 -26 79 1 97 4
148 30 160 80 232 268 168 437 -61 158 -245 249 -410 203z"/>
<path d="M3817 1679 c-109 -26 -204 -112 -243 -221 -8 -24 -15 -74 -15 -113
-1 -138 66 -247 189 -307 59 -29 76 -33 152 -33 71 0 94 4 140 26 77 36 121
78 160 151 81 152 36 347 -103 441 -86 59 -185 78 -280 56z"/>
<path d="M4973 1675 c-98 -27 -184 -101 -225 -193 -31 -68 -31 -209 -1 -274
30 -66 105 -143 172 -175 49 -24 68 -28 146 -28 108 0 159 20 233 89 72 68
106 148 106 251 0 93 -27 165 -89 234 -79 87 -226 129 -342 96z"/>
<path d="M2379 947 c-113 -26 -216 -95 -280 -190 -42 -63 -79 -168 -79 -223
l0 -34 564 0 563 0 7 54 c9 82 36 155 83 224 l42 63 -61 40 c-109 70 -125 72
-473 75 -220 2 -326 -1 -366 -9z"/>
<path d="M3553 945 c-188 -41 -328 -195 -352 -387 l-7 -58 703 0 703 0 0 33
c0 17 -6 55 -14 83 -45 169 -188 302 -360 333 -88 16 -595 13 -673 -4z"/>
<path d="M4735 948 c-55 -10 -157 -57 -193 -88 l-23 -19 31 -46 c48 -70 78
-143 91 -222 l12 -73 560 0 560 0 -6 60 c-16 184 -179 354 -371 389 -73 13
-590 13 -661 -1z"/>
</g>
</svg>
