<?xml version="1.0" standalone="no"?>
<!DOCTYPE svg PUBLIC "-//W3C//DTD SVG 20010904//EN"
 "http://www.w3.org/TR/2001/REC-SVG-20010904/DTD/svg10.dtd">
<svg version="1.0" xmlns="http://www.w3.org/2000/svg"
 width="1920.000000pt" height="1920.000000pt" viewBox="0 0 1920.000000 1920.000000"
 preserveAspectRatio="xMidYMid meet">

<g transform="translate(0.000000,1920.000000) scale(0.100000,-0.100000)"
fill="#000000" stroke="none">
<path d="M13393 14888 c-17 -18 -121 -141 -230 -274 -652 -792 -823 -1000
-1055 -1281 -142 -171 -258 -317 -258 -322 0 -6 4 -11 8 -11 5 0 39 -21 78
-46 l69 -47 41 49 c50 59 282 338 564 679 321 389 552 669 814 984 123 149
136 169 136 204 0 54 -43 97 -97 97 -31 0 -46 -7 -70 -32z"/>
<path d="M8105 14110 c-229 -58 -439 -224 -538 -425 -121 -245 -124 -495 -8
-740 194 -409 681 -582 1095 -388 96 45 152 84 229 160 237 232 312 596 185
901 -57 138 -179 292 -291 368 -57 38 -194 101 -262 120 -97 27 -311 28 -410
4z"/>
<path d="M11490 12838 c-36 -13 -78 -33 -94 -45 -32 -26 -186 -174 -650 -627
-180 -177 -334 -320 -342 -318 -7 1 -145 50 -306 108 -161 58 -434 155 -605
215 l-312 109 -915 6 -914 7 -54 -26 c-65 -33 -195 -126 -578 -418 -162 -123
-448 -339 -634 -479 -206 -154 -351 -270 -369 -295 -51 -69 -70 -124 -75 -211
-7 -132 4 -157 211 -463 544 -808 712 -1052 749 -1089 182 -184 504 -124 616
116 24 50 27 69 27 162 0 130 1 128 -197 419 -346 510 -501 741 -497 745 32
26 450 336 454 336 3 0 5 -154 5 -343 l0 -344 172 -254 c94 -140 184 -280 200
-311 124 -249 46 -557 -184 -718 -39 -28 -98 -60 -130 -71 l-58 -22 0 -631 c0
-347 -5 -1294 -10 -2104 -11 -1639 -14 -1547 56 -1692 50 -101 151 -201 254
-252 96 -47 154 -60 265 -60 252 0 464 159 546 409 l22 68 8 1210 c5 666 11
1531 15 1923 l6 713 25 29 c29 35 78 47 127 30 70 -23 67 27 66 -838 0 -427
-3 -892 -6 -1032 -2 -140 -5 -658 -5 -1150 1 -983 -2 -936 61 -1060 76 -147
229 -265 388 -299 75 -16 197 -14 266 4 154 40 303 159 370 295 65 135 63 96
70 1370 3 635 9 1490 12 1900 2 410 9 1354 14 2099 6 745 12 1356 14 1359 3 2
83 -24 178 -58 95 -35 241 -86 323 -115 83 -29 197 -70 255 -91 169 -60 280
-52 400 30 25 16 160 143 300 281 140 137 400 391 578 564 287 280 326 321
355 380 30 61 32 73 32 166 0 88 -3 107 -27 158 -38 80 -115 158 -190 192 -87
39 -199 44 -288 13z"/>
</g>
</svg>
